{"title":"Darling.2015.WEBRip.480p.x264.AAC-VYTO [P2PDL]","uid":14281487,"size":297716320,"categoryP":"video","categoryS":"movies","magnet":"?xt=urn:btih:9a6c36f65c57658b987fcb006da07e888c540ca7&amp;dn=Darling.2015.WEBRip.480p.x264.AAC-VYTO+%5BP2PDL%5D&amp;tr=udp%3A%2F%2Ftracker.leechers-paradise.org%3A6969&amp;tr=udp%3A%2F%2Fzer0day.ch%3A1337&amp;tr=udp%3A%2F%2Fopen.demonii.com%3A1337&amp;tr=udp%3A%2F%2Ftracker.coppersurfer.tk%3A6969&amp;tr=udp%3A%2F%2Fexodus.desync.com%3A6969","seeders":1,"leechers":0,"uploader":"VYTOP2PDL","files":7,"time":1460362746,"description":"____    ____ ____    ____ .___________.  ______   \r\n     /   /      /   / |           | /  __    \r\n    /   /      /   /  `---|  |----`|  |  |  | \r\n        /     _    _/       |  |     |  |  |  | \r\n       /        |  |         |  |     |  `--'  | \r\n    __/         |__|         |__|      ______/  \r\n                                                  \r\nPresenting Small Encodes with quality for years!\r\n                                                                                                   \r\n                                                                                                   \r\n\r\n\r\nDarling.2015.WEBRip.480p.x264.AAC-VYTO\r\n\r\n\r\nGenre: Horror, Thriller  \nhttp://www.imdb.com/title/tt4126394/\r\n\r\n\r\nFormat                                   : MPEG-4\r\nFile size                                : 277 MiB\r\nDuration                                 : 1h 16mn\r\nOverall bit rate                         : 506 Kbps\r\n\r\nVideo\r\nFormat                                   : AVC\r\nBit rate                                 : 471 Kbps\r\nWidth                                    : 720 pixels\r\nHeight                                   : 432 pixels\r\nDisplay aspect ratio                     : 5:3\r\nFrame rate mode                          : Constant\r\nFrame rate                               : 23.976 fps\r\nBit depth                                : 8 bits\r\nStream size                              : 257 MiB (93%)\r\nWriting library                          : x264 \r\n\r\nAudio\r\nFormat                                   : AAC\r\nBit rate mode                            : Variable\r\nBit rate                                 : 32.0 Kbps\r\nChannel(s)                               : 2 channels\r\nChannel positions                        : Front: L R\r\nSampling rate                            : 48.0 KHz \r\nStream size                              : 17.5 MiB (6%)\r\nLanguage                                 : English\r\n\r\nSubtitle                                 : Yes (English)\r\n\r\nScreen Shot: (Click link to view)\r\n \nhttps://ititli.com/Xs9 \nhttps://ititli.com/XsX \nhttps://ititli.com/Xsq \nhttps://ititli.com/Xsr \nhttps://ititli.com/Xs1 \nhttps://ititli.com/XsT \nhttps://ititli.com/XsW \nhttps://ititli.com/Xsg \nhttps://ititli.com/Xsn\r\n\r\n----------------------------------------------------------------------------------------------------\r\n\r\n\r\nEncoder Notes: Looking For Early Access To Anything You Can Provide WEBDL, DVDScr, DVDR, BluRay,\r\nDirect Audio, Music Releases and Seedboxes. If You Got anything to offer please contact us.\r\n\r\nSupport us by donating BC - 1FgwdzPsd1y25Gea8wP1qni35uGCtmkRCD\r\n\r\nFind us and join us!","torrent":{"xt":"urn:btih:9a6c36f65c57658b987fcb006da07e888c540ca7","amp;dn":"Darling.2015.WEBRip.480p.x264.AAC-VYTO+%5BP2PDL%5D","amp;tr":["udp%3A%2F%2Ftracker.leechers-paradise.org%3A6969","udp%3A%2F%2Fzer0day.ch%3A1337","udp%3A%2F%2Fopen.demonii.com%3A1337","udp%3A%2F%2Ftracker.coppersurfer.tk%3A6969","udp%3A%2F%2Fexodus.desync.com%3A6969"],"infoHash":"9a6c36f65c57658b987fcb006da07e888c540ca7","infoHashBuffer":{"type":"Buffer","data":[154,108,54,246,92,87,101,139,152,127,203,0,109,160,126,136,140,84,12,167]},"announce":[],"urlList":[]}}